<svg width="17" height="16" viewBox="0 0 17 16" fill="none" xmlns="http://www.w3.org/2000/svg">
<path d="M7.90164 1.04893C8.11119 0.404016 9.02358 0.404018 9.23312 1.04894L10.5431 5.08065C10.6368 5.36907 10.9056 5.56434 11.2088 5.56434H15.448C16.1262 5.56434 16.4081 6.43207 15.8595 6.83065L12.4299 9.32239C12.1846 9.50064 12.0819 9.8166 12.1756 10.105L13.4856 14.1367C13.6952 14.7816 12.957 15.3179 12.4084 14.9193L8.97883 12.4276C8.73349 12.2494 8.40127 12.2494 8.15593 12.4276L4.72635 14.9194C4.17775 15.3179 3.43962 14.7816 3.64916 14.1367L4.95915 10.105C5.05286 9.81659 4.9502 9.50064 4.70486 9.32239L1.27527 6.83065C0.726673 6.43207 1.00862 5.56434 1.68672 5.56434H5.92592C6.22918 5.56434 6.49795 5.36907 6.59166 5.08065L7.90164 1.04893Z" fill="#EA8827"/>
</svg>
