<svg width="24" height="28" viewBox="0 0 24 28" fill="none" xmlns="http://www.w3.org/2000/svg">
<path d="M11.998 16.5292C9.27295 16.5292 7.04688 14.316 7.04688 11.5781C7.04688 8.84038 9.27295 6.63989 11.998 6.63989C14.723 6.63989 16.9491 8.85318 16.9491 11.5909C16.9491 14.3288 14.723 16.5292 11.998 16.5292ZM11.998 8.55892C10.3349 8.55892 8.96591 9.91504 8.96591 11.5909C8.96591 13.2669 10.3221 14.623 11.998 14.623C13.674 14.623 15.0301 13.2669 15.0301 11.5909C15.0301 9.91504 13.6612 8.55892 11.998 8.55892Z" fill="#292D32"/>
<path d="M11.9961 27.5189C10.1026 27.5189 8.19636 26.8025 6.71231 25.3824C2.93822 21.749 -1.23248 15.9535 0.341128 9.05782C1.76121 2.80178 7.22405 0 11.9961 0H12.0088C16.7808 0 22.2437 2.80178 23.6638 9.07062C25.2246 15.9663 21.0539 21.749 17.2798 25.3824C15.7957 26.8025 13.8895 27.5189 11.9961 27.5189ZM11.9961 1.91903C8.27312 1.91903 3.48834 3.90203 2.22178 9.48001C0.840077 15.5058 4.62696 20.6999 8.05563 23.9879C10.2689 26.1244 13.736 26.1244 15.9493 23.9879C19.3651 20.6999 23.152 15.5058 21.7959 9.48001C20.5166 3.90203 15.719 1.91903 11.9961 1.91903Z" fill="#292D32"/>
</svg>
