<svg width="24" height="25" viewBox="0 0 24 25" fill="none" xmlns="http://www.w3.org/2000/svg">
<path d="M18.1174 24.7303C16.8537 24.7303 15.5228 24.4283 14.1473 23.8468C12.8052 23.2764 11.452 22.4936 10.1323 21.543C8.82386 20.5812 7.56011 19.5075 6.36347 18.3333C5.17801 17.1366 4.10438 15.8729 3.15377 14.5756C2.19199 13.2335 1.42032 11.8915 0.872321 10.5942C0.290774 9.20745 0 7.86542 0 6.60167C0 5.72935 0.15657 4.90176 0.458527 4.13009C0.771668 3.33606 1.27493 2.59794 1.95713 1.96048C2.81827 1.11052 3.80242 0.685547 4.85368 0.685547C5.28984 0.685547 5.73719 0.786199 6.11743 0.965137C6.55359 1.16644 6.92265 1.4684 7.19105 1.87101L9.78565 5.52804C10.0205 5.85237 10.1994 6.16551 10.3225 6.47865C10.4678 6.81416 10.5461 7.14967 10.5461 7.47399C10.5461 7.89897 10.4231 8.31276 10.1883 8.70419C10.0205 9.00614 9.76328 9.33047 9.43896 9.65479L8.67847 10.4488C8.68966 10.4824 8.70084 10.5047 8.71202 10.5271C8.84623 10.762 9.11463 11.1646 9.62908 11.7685C10.1771 12.3948 10.6915 12.9651 11.206 13.4908C11.8658 14.1394 12.4138 14.6539 12.9282 15.0788C13.5657 15.6156 13.9795 15.8841 14.2255 16.0071L14.2032 16.063L15.0196 15.2578C15.3663 14.9111 15.7018 14.6539 16.0261 14.4861C16.6412 14.1059 17.424 14.0388 18.2069 14.3631C18.4977 14.4861 18.8108 14.6539 19.1463 14.8887L22.8593 17.528C23.2731 17.8076 23.575 18.1655 23.754 18.5905C23.9217 19.0155 24 19.4069 24 19.7983C24 20.3351 23.877 20.8719 23.6421 21.3752C23.4073 21.8785 23.1165 22.3146 22.7474 22.7172C22.11 23.4218 21.4166 23.9251 20.6114 24.2494C19.8397 24.5625 19.0009 24.7303 18.1174 24.7303ZM4.85368 2.36309C4.23858 2.36309 3.66822 2.63149 3.12022 3.16831C2.60578 3.6492 2.2479 4.17483 2.02423 4.74519C1.78938 5.32674 1.67754 5.94184 1.67754 6.60167C1.67754 7.64174 1.92358 8.77129 2.41566 9.93438C2.91892 11.1198 3.62349 12.35 4.51817 13.5802C5.41286 14.8104 6.43057 16.0071 7.54893 17.1366C8.66729 18.2438 9.87512 19.2727 11.1165 20.1786C12.3243 21.0621 13.5657 21.7778 14.7959 22.2923C16.7083 23.1087 18.4977 23.2988 19.9739 22.6837C20.5443 22.4488 21.0475 22.091 21.5061 21.5765C21.7633 21.2969 21.9646 20.995 22.1323 20.6371C22.2665 20.3575 22.3336 20.0667 22.3336 19.7759C22.3336 19.597 22.3001 19.4181 22.2106 19.2168C22.1771 19.1497 22.11 19.0266 21.8975 18.8813L18.1845 16.2419C17.9609 16.0854 17.7596 15.9735 17.5694 15.8952C17.3234 15.7946 17.2227 15.6939 16.8425 15.9288C16.6188 16.0406 16.4175 16.2084 16.1938 16.4321L15.3439 17.2708C14.9077 17.6958 14.2367 17.7964 13.7223 17.6063L13.4203 17.4721C12.9618 17.2261 12.425 16.8458 11.8322 16.3426C11.2954 15.8841 10.7139 15.3472 10.0093 14.6539C9.46132 14.0947 8.91333 13.5019 8.34296 12.8421C7.81734 12.227 7.43709 11.7014 7.20224 11.2652L7.06803 10.9297C7.00093 10.6725 6.97856 10.5271 6.97856 10.3705C6.97856 9.96793 7.12395 9.61006 7.40354 9.33047L8.24231 8.45815C8.46598 8.23447 8.63374 8.02199 8.74557 7.83187C8.83504 7.68648 8.86859 7.56346 8.86859 7.45162C8.86859 7.36215 8.83504 7.22795 8.77913 7.09375C8.70084 6.91481 8.57782 6.71351 8.42125 6.50102L5.82665 2.8328C5.71482 2.67623 5.58062 2.56439 5.41286 2.48611C5.23392 2.40782 5.0438 2.36309 4.85368 2.36309ZM14.2032 16.0742L14.0242 16.8347L14.3262 16.0518C14.2703 16.0406 14.2255 16.0518 14.2032 16.0742Z" fill="#292D32"/>
</svg>
